<svg width="640" height="480" xmlns="http://www.w3.org/2000/svg">
 <!-- Created with SVG-edit - https://github.com/SVG-Edit/svgedit-->

 <g>
  <title>background</title>
  <rect fill="none" id="canvas_background" height="402" width="582" y="-1" x="-1"/>
 </g>
 <g class="layer">
  <title>Layer 1</title>
  <path stroke-width="5" stroke="#cccccc" id="svg_13" fill="#cccccc" d="m4.5,150.25l0.37,-63.13l30.36,-0.12l0.75,-5.38l120.33,-48.45l1,-26.67l477.7,0l-0.25,96.04l-477.82,-0.12l-121.07,47.59l-31.36,0.24l-0.01,0z"/>
  <rect y="7.5" x="507.87" width="9.75" stroke-width="5" stroke="#ffaaaa" id="svg_25" height="30.25" fill="#ffaaaa">лифт</rect>
  <rect y="7.75" x="523.24" width="7.75" stroke-width="5" stroke="#ffaaaa" id="svg_26" height="30" fill="#ffaaaa"/>
  <rect y="7.75" x="537" width="36.25" stroke-width="5" stroke="#ffaaaa" id="svg_27" height="30" fill="#ffaaaa"/>
  <text y="-197.44" xml:space="preserve" x="591.17" transform="matrix(0.4740599999999999,0,0,0.4955200000000001,277.52222702789305,124.15407722568513) " text-anchor="middle" stroke-width="0" stroke="#ffaaaa" id="svg_29" font-size="24" font-family="Serif" fill="#000000">лифт</text>
  <rect y="8.5" x="171.87" width="12.25" stroke-width="5" stroke="#ffaaaa" id="svg_30" height="17.25" fill="#ffaaaa"/>
  <rect y="8" x="157.37" width="8.75" stroke-width="5" stroke="#ffaaaa" id="svg_31" height="31" fill="#ffaaaa"/>
  <text stroke="#ffaaaa" transform="matrix(0.8009452953870486,0,0,0.8514289194752392,35.69293943035156,1.0357168872216387) " y="23.5" xml:space="preserve" x="177.38" text-anchor="middle" stroke-width="0" id="svg_33" font-size="24" font-family="Serif" fill="#000000">ж</text>
  <rect y="63.75" x="190.13" width="9.25" stroke-width="5" stroke="#ffaaaa" id="svg_34" height="37.5" fill="#ffaaaa"/>
  <rect y="64.5" x="221.37" width="26.5" stroke-width="5" stroke="#ffaaaa" id="svg_35" height="36.25" fill="#ffaaaa"/>
  <path stroke-width="5" stroke="#ffaaaa" id="svg_36" fill="#ffaaaa" d="m135.63,68.36c0,0.23 14.18,34.64 13.33,34.89c-0.85,0.25 3.41,-1.15 3.31,-1.15c-0.1,0 0.1,-38.1 0,-38.1c-0.1,0 -16.63,4.36 -16.63,4.36l-0.01,0z"/>
  <rect y="114.16" x="126.34" width="58.43" transform="matrix(0.952874,-0.385258,0.373994,0.981326,-114.272,39.9998) " stroke-width="5" stroke="#ffaaaa" id="svg_37" height="35.68" fill="#ffaaaa"/>
  <rect y="7.5" x="300.62" width="12" stroke-width="5" stroke="#ffaaaa" id="svg_38" height="39.75" fill="#ffaaaa"/>
  <text y="26.781864" xml:space="preserve" x="364.838508" transform="rotate(-89.67559814453125 303.6108093261719,27.840131759643533) matrix(0.33900021974042904,0,0,0.8482530000000003,179.90529608437453,11.993894497683186) " text-anchor="middle" stroke-width="0" stroke="#cccccc" id="svg_39" font-size="24" font-family="Serif" fill="#000000">лестница</text>
  <text y="29.32254" xml:space="preserve" x="371.957322" transform="rotate(-89.67559814453125 159.63748168945312,22.834808349609375) matrix(0.2940136896016257,0,0,0.7322735284227136,50.24984774893488,7.314180422900647) " text-anchor="middle" stroke-width="0" stroke="#cccccc" id="svg_1" font-size="24" font-family="Serif" fill="#000000">лестница</text>
  <text y="32.794007" xml:space="preserve" x="376.53526" transform="rotate(-89.67559814453125 524.8607788085938,22.50339508056639) matrix(0.2584703671854286,0,0,0.6575856540963653,427.5306530329734,6.2951336691580195) " text-anchor="middle" stroke-width="0" stroke="#cccccc" id="svg_2" font-size="24" font-family="Serif" fill="#000000">лестница</text>
 </g>
</svg>