<svg width="640" height="200" xmlns="http://www.w3.org/2000/svg">
 <!-- Created with SVG-edit - https://github.com/SVG-Edit/svgedit-->

 <g>
  <title>background</title>
  <rect x="-1" y="-1" width="642" height="202" id="canvas_background" fill="none"/>
 </g>
 <g class="layer">
  <title>Layer 1</title>
  <path d="m4.5,150.25l0.37,-63.13l30.36,-0.12l0.75,-5.38l120.33,-48.45l1,-26.67l477.7,0l-0.25,96.04l-477.82,-0.12l-121.07,47.59l-31.36,0.24l-0.01,0z" fill="#cccccc" id="svg_13" stroke="#cccccc" stroke-width="5"/>
  <rect fill="#ffaaaa" height="30.25" id="svg_25" stroke="#ffaaaa" stroke-width="5" width="9.75" x="507.87" y="7.5">лифт</rect>
  <rect fill="#ffaaaa" height="30" id="svg_26" stroke="#ffaaaa" stroke-width="5" width="7.75" x="523.24" y="7.75"/>
  <rect fill="#ffaaaa" height="30" id="svg_27" stroke="#ffaaaa" stroke-width="5" width="36.25" x="537" y="7.75"/>
  <text fill="#000000" font-family="Serif" font-size="24" id="svg_29" stroke="#ffaaaa" stroke-width="0" text-anchor="middle" transform="matrix(0.4740599999999999,0,0,0.4955200000000001,277.52222702789305,124.15407722568513) " x="591.17" xml:space="preserve" y="-197.44">лифт</text>
  <rect fill="#ffaaaa" height="17.25" id="svg_30" stroke="#ffaaaa" stroke-width="5" width="12.25" x="171.87" y="8.5"/>
  <rect fill="#ffaaaa" height="31" id="svg_31" stroke="#ffaaaa" stroke-width="5" width="8.75" x="157.37" y="8"/>
  <text fill="#000000" font-family="Serif" font-size="24" id="svg_33" stroke-width="0" text-anchor="middle" x="177.38" xml:space="preserve" y="23.5" transform="matrix(0.8009452953870486,0,0,0.8514289194752392,35.69293943035156,1.0357168872216387) " stroke="#ffaaaa">ж</text>
  <rect fill="#ffaaaa" height="37.5" id="svg_34" stroke="#ffaaaa" stroke-width="5" width="9.25" x="190.13" y="63.75"/>
  <rect fill="#ffaaaa" height="36.25" id="svg_35" stroke="#ffaaaa" stroke-width="5" width="26.5" x="221.37" y="64.5"/>
  <path d="m135.63,68.36c0,0.23 14.18,34.64 13.33,34.89c-0.85,0.25 3.41,-1.15 3.31,-1.15c-0.1,0 0.1,-38.1 0,-38.1c-0.1,0 -16.63,4.36 -16.63,4.36l-0.01,0z" fill="#ffaaaa" id="svg_36" stroke="#ffaaaa" stroke-width="5"/>
  <rect fill="#ffaaaa" height="35.68" id="svg_37" stroke="#ffaaaa" stroke-width="5" transform="matrix(0.952874,-0.385258,0.373994,0.981326,-114.272,39.9998) " width="58.43" x="126.34" y="114.16"/>
  <rect fill="#ffaaaa" height="39.75" id="svg_38" stroke="#ffaaaa" stroke-width="5" width="12" x="300.62" y="7.5"/>
  <text fill="#000000" font-family="Serif" font-size="24" id="svg_39" stroke="#cccccc" stroke-width="0" text-anchor="middle" transform="rotate(-89.67559814453125 303.58721923828125,27.965759277343754) matrix(0.33900021974042904,0,0,0.8482530000000003,179.90529608437453,11.993894497683186) " x="364.83851" xml:space="preserve" y="26.78186">лестница</text>
  <text fill="#000000" font-family="Serif" font-size="24" id="svg_1" stroke="#cccccc" stroke-width="0" text-anchor="middle" transform="rotate(-89.67559814453125 159.6831817626953,22.847640991210923) matrix(0.2940136896016257,0,0,0.7322735284227136,50.24984774893488,7.314180422900647) " x="371.95732" xml:space="preserve" y="29.32254">лестница</text>
  <text fill="#000000" font-family="Serif" font-size="24" id="svg_2" stroke="#cccccc" stroke-width="0" text-anchor="middle" transform="rotate(-89.67559814453125 524.9520874023439,22.595565795898466) matrix(0.2584703671854286,0,0,0.6575856540963653,427.5306530329734,6.2951336691580195) " x="376.53526" xml:space="preserve" y="32.79401">лестница</text>
 </g>
</svg>